<?xml version="1.0" encoding="utf-8"?>
<svg xmlns="http://www.w3.org/2000/svg" style="margin: auto; background: rgb(241, 242, 243); display: block; shape-rendering: auto; animation-play-state: running; animation-delay: 0s;" width="280" height="250" preserveAspectRatio="xMidYMid">
<style type="text/css" style="animation-play-state: running; animation-delay: 0s;">
  text {
    text-anchor: middle; font-size: 61px; opacity: 0;
  }
</style>
<g style="transform-origin: 140px 125px; transform: scale(1); animation-play-state: running; animation-delay: 0s;">
<g transform="translate(140,125)" style="animation-play-state: running; animation-delay: 0s;">
  <g transform="translate(0,0)" style="animation-play-state: running; animation-delay: 0s;"><g class="path" style="transform: matrix(1, 0, 0, 1, 0, 0); transform-origin: -359.965px -3.8542px; animation: 1s linear -0.6336s infinite normal forwards running bounce-688e8def-ec9a-44e5-a035-7764efad05c0;"><path d="M5.49 0L5.49-42.70L30.80-42.70L30.80-37.70L11.29-37.70L11.29-24.64L27.57-24.64L27.57-19.89L11.29-19.89L11.29 0L5.49 0" fill="#656565" stroke="none" stroke-width="none" transform="translate(-378.11005878448486,17.495799454116824)" style="fill: rgb(101, 101, 101); animation-play-state: running; animation-delay: 0s;"></path></g><g class="path" style="transform: matrix(1, 0, 0, 1, 0, 0); transform-origin: -339.375px 1.6358px; animation: 1s linear -0.6072s infinite normal forwards running bounce-688e8def-ec9a-44e5-a035-7764efad05c0;"><path d="M41.48-31.72L41.48 0L35.99 0L35.99-31.72L41.48-31.72" fill="#656565" stroke="none" stroke-width="none" transform="translate(-378.11005878448486,17.495799454116824)" style="fill: rgb(101, 101, 101); animation-play-state: running; animation-delay: 0s;"></path></g><g class="path" style="transform: matrix(1, 0, 0, 1, 0, 0); transform-origin: -339.375px -23.4992px; animation: 1s linear -0.5808s infinite normal forwards running bounce-688e8def-ec9a-44e5-a035-7764efad05c0;"><path d="M38.73-37.15L38.73-37.15L38.73-37.15Q37.15-37.15 36.02-38.28L36.02-38.28L36.02-38.28Q34.89-39.41 34.89-40.99L34.89-40.99L34.89-40.99Q34.89-42.76 35.93-43.80L35.93-43.80L35.93-43.80Q36.97-44.84 38.73-44.84L38.73-44.84L38.73-44.84Q40.32-44.84 41.45-43.71L41.45-43.71L41.45-43.71Q42.58-42.58 42.58-40.99L42.58-40.99L42.58-40.99Q42.58-39.22 41.54-38.19L41.54-38.19L41.54-38.19Q40.50-37.15 38.73-37.15" fill="#656565" stroke="none" stroke-width="none" transform="translate(-378.11005878448486,17.495799454116824)" style="fill: rgb(101, 101, 101); animation-play-state: running; animation-delay: 0s;"></path></g><g class="path" style="transform: matrix(1, 0, 0, 1, 0, 0); transform-origin: -319.06px -4.7092px; animation: 1s linear -0.5544s infinite normal forwards running bounce-688e8def-ec9a-44e5-a035-7764efad05c0;"><path d="M56.42-45.14L56.42-10.49L56.42-10.49Q56.42-7.20 57.80-5.61L57.80-5.61L57.80-5.61Q59.17-4.03 61.61-4.03L61.61-4.03L61.61-4.03Q62.77-4.03 63.87-4.30L63.87-4.30L63.87-4.30Q64.97-4.58 65.82-4.94L65.82-4.94L67.16-0.49L67.16-0.49Q66.06 0 64.45 0.37L64.45 0.37L64.45 0.37Q62.83 0.73 60.88 0.73L60.88 0.73L60.88 0.73Q58.74 0.73 56.94 0.12L56.94 0.12L56.94 0.12Q55.14-0.49 53.80-1.77L53.80-1.77L53.80-1.77Q52.46-3.05 51.70-5.06L51.70-5.06L51.70-5.06Q50.94-7.08 50.94-9.94L50.94-9.94L50.94-45.14L56.42-45.14" fill="#656565" stroke="none" stroke-width="none" transform="translate(-378.11005878448486,17.495799454116824)" style="fill: rgb(101, 101, 101); animation-play-state: running; animation-delay: 0s;"></path></g><g class="path" style="transform: matrix(1, 0, 0, 1, 0, 0); transform-origin: -294.815px 1.6358px; animation: 1s linear -0.528s infinite normal forwards running bounce-688e8def-ec9a-44e5-a035-7764efad05c0;"><path d="M97.11-13.60L74.91-13.60L74.91-13.60Q75.46-9.15 78.02-6.65L78.02-6.65L78.02-6.65Q80.58-4.15 84.79-4.15L84.79-4.15L84.79-4.15Q87.53-4.15 89.73-4.73L89.73-4.73L89.73-4.73Q91.93-5.31 93.94-6.22L93.94-6.22L95.22-1.52L95.22-1.52Q93.02-0.49 90.28 0.12L90.28 0.12L90.28 0.12Q87.53 0.73 84.12 0.73L84.12 0.73L84.12 0.73Q80.70 0.73 77.96-0.40L77.96-0.40L77.96-0.40Q75.21-1.52 73.29-3.63L73.29-3.63L73.29-3.63Q71.37-5.73 70.33-8.81L70.33-8.81L70.33-8.81Q69.30-11.89 69.30-15.86L69.30-15.86L69.30-15.86Q69.30-19.40 70.33-22.45L70.33-22.45L70.33-22.45Q71.37-25.50 73.26-27.72L73.26-27.72L73.26-27.72Q75.15-29.95 77.77-31.20L77.77-31.20L77.77-31.20Q80.40-32.45 83.63-32.45L83.63-32.45L83.63-32.45Q87.05-32.45 89.61-31.29L89.61-31.29L89.61-31.29Q92.17-30.13 93.88-28.12L93.88-28.12L93.88-28.12Q95.59-26.11 96.44-23.42L96.44-23.42L96.44-23.42Q97.29-20.74 97.29-17.75L97.29-17.75L97.29-17.75Q97.29-15.62 97.11-13.60L97.11-13.60zM83.51-27.69L83.51-27.69L83.51-27.69Q79.91-27.69 77.62-25.25L77.62-25.25L77.62-25.25Q75.33-22.81 74.85-18.06L74.85-18.06L92.23-18.06L92.23-18.06Q92.23-22.69 89.91-25.19L89.91-25.19L89.91-25.19Q87.60-27.69 83.51-27.69" fill="#656565" stroke="none" stroke-width="none" transform="translate(-378.11005878448486,17.495799454116824)" style="fill: rgb(101, 101, 101); animation-play-state: running; animation-delay: 0s;"></path></g><g class="path" style="transform: matrix(1, 0, 0, 1, 0, 0); transform-origin: -239.64px -3.4892px; animation: 1s linear -0.5016s infinite normal forwards running bounce-688e8def-ec9a-44e5-a035-7764efad05c0;"><path d="M148.72-17.14L148.72-42.70L154.33-42.70L154.33-16.47L154.33-16.47Q154.33-12.44 153.20-9.24L153.20-9.24L153.20-9.24Q152.07-6.04 149.97-3.81L149.97-3.81L149.97-3.81Q147.86-1.59 144.94-0.43L144.94-0.43L144.94-0.43Q142.01 0.73 138.41 0.73L138.41 0.73L138.41 0.73Q130.97 0.73 126.79-3.63L126.79-3.63L126.79-3.63Q122.61-7.99 122.61-16.23L122.61-16.23L122.61-42.70L128.40-42.70L128.40-17.14L128.40-17.14Q128.40-10.98 130.88-7.66L130.88-7.66L130.88-7.66Q133.35-4.33 138.41-4.33L138.41-4.33L138.41-4.33Q143.59-4.33 146.16-7.59L146.16-7.59L146.16-7.59Q148.72-10.86 148.72-17.14L148.72-17.14" fill="#656565" stroke="none" stroke-width="none" transform="translate(-378.11005878448486,17.495799454116824)" style="fill: rgb(101, 101, 101); animation-play-state: running; animation-delay: 0s;"></path></g><g class="path" style="transform: matrix(1, 0, 0, 1, 0, 0); transform-origin: -200.665px 7.9808px; animation: 1s linear -0.4752s infinite normal forwards running bounce-688e8def-ec9a-44e5-a035-7764efad05c0;"><path d="M161.34-27.45L162.50-31.72L162.50-31.72Q168.12-31.72 169.52-27.27L169.52-27.27L169.52-27.27Q169.95-27.94 170.83-28.85L170.83-28.85L170.83-28.85Q171.71-29.77 173.00-30.56L173.00-30.56L173.00-30.56Q174.28-31.35 175.92-31.90L175.92-31.90L175.92-31.90Q177.57-32.45 179.58-32.45L179.58-32.45L179.58-32.45Q182.33-32.45 184.86-31.35L184.86-31.35L184.86-31.35Q187.39-30.26 189.31-28.18L189.31-28.18L189.31-28.18Q191.23-26.11 192.39-23.06L192.39-23.06L192.39-23.06Q193.55-20.01 193.55-16.16L193.55-16.16L193.55-16.16Q193.55-12.38 192.42-9.27L192.42-9.27L192.42-9.27Q191.30-6.16 189.37-3.93L189.37-3.93L189.37-3.93Q187.45-1.71 184.95-0.49L184.95-0.49L184.95-0.49Q182.45 0.73 179.71 0.73L179.71 0.73L179.71 0.73Q176.84 0.73 174.43-0.40L174.43-0.40L174.43-0.40Q172.02-1.52 170.43-2.99L170.43-2.99L170.43 13.42L164.94 13.42L164.94-23.61L164.94-23.61Q164.94-25.68 163.94-26.57L163.94-26.57L163.94-26.57Q162.93-27.45 161.34-27.45L161.34-27.45zM187.94-15.98L187.94-15.98L187.94-15.98Q187.94-18.73 187.18-20.89L187.18-20.89L187.18-20.89Q186.42-23.06 185.10-24.58L185.10-24.58L185.10-24.58Q183.79-26.11 182.05-26.90L182.05-26.90L182.05-26.90Q180.32-27.69 178.36-27.69L178.36-27.69L178.36-27.69Q175.74-27.69 173.64-26.38L173.64-26.38L173.64-26.38Q171.53-25.07 170.43-23.55L170.43-23.55L170.43-7.93L170.43-7.93Q172.02-6.28 174.06-5.22L174.06-5.22L174.06-5.22Q176.11-4.15 178.61-4.15L178.61-4.15L178.61-4.15Q180.68-4.15 182.39-5.00L182.39-5.00L182.39-5.00Q184.10-5.86 185.35-7.41L185.35-7.41L185.35-7.41Q186.60-8.97 187.27-11.13L187.27-11.13L187.27-11.13Q187.94-13.30 187.94-15.98" fill="#656565" stroke="none" stroke-width="none" transform="translate(-378.11005878448486,17.495799454116824)" style="fill: rgb(101, 101, 101); animation-play-state: running; animation-delay: 0s;"></path></g><g class="path" style="transform: matrix(1, 0, 0, 1, 0, 0); transform-origin: -169.125px -4.7092px; animation: 1s linear -0.4488s infinite normal forwards running bounce-688e8def-ec9a-44e5-a035-7764efad05c0;"><path d="M206.36-45.14L206.36-10.49L206.36-10.49Q206.36-7.20 207.74-5.61L207.74-5.61L207.74-5.61Q209.11-4.03 211.55-4.03L211.55-4.03L211.55-4.03Q212.71-4.03 213.80-4.30L213.80-4.30L213.80-4.30Q214.90-4.58 215.76-4.94L215.76-4.94L217.10-0.49L217.10-0.49Q216.00 0 214.38 0.37L214.38 0.37L214.38 0.37Q212.77 0.73 210.82 0.73L210.82 0.73L210.82 0.73Q208.68 0.73 206.88 0.12L206.88 0.12L206.88 0.12Q205.08-0.49 203.74-1.77L203.74-1.77L203.74-1.77Q202.40-3.05 201.64-5.06L201.64-5.06L201.64-5.06Q200.87-7.08 200.87-9.94L200.87-9.94L200.87-45.14L206.36-45.14" fill="#656565" stroke="none" stroke-width="none" transform="translate(-378.11005878448486,17.495799454116824)" style="fill: rgb(101, 101, 101); animation-play-state: running; animation-delay: 0s;"></path></g><g class="path" style="transform: matrix(1, 0, 0, 1, 0, 0); transform-origin: -143.38px 1.6358px; animation: 1s linear -0.4224s infinite normal forwards running bounce-688e8def-ec9a-44e5-a035-7764efad05c0;"><path d="M244.91-15.86L244.91-15.86L244.91-15.86Q244.91-18.24 244.15-20.37L244.15-20.37L244.15-20.37Q243.39-22.51 242.02-24.09L242.02-24.09L242.02-24.09Q240.64-25.68 238.78-26.63L238.78-26.63L238.78-26.63Q236.92-27.57 234.73-27.57L234.73-27.57L234.73-27.57Q229.91-27.57 227.22-24.40L227.22-24.40L227.22-24.40Q224.54-21.23 224.54-15.98L224.54-15.98L224.54-15.98Q224.54-13.60 225.30-11.44L225.30-11.44L225.30-11.44Q226.07-9.27 227.44-7.66L227.44-7.66L227.44-7.66Q228.81-6.04 230.67-5.09L230.67-5.09L230.67-5.09Q232.53-4.15 234.73-4.15L234.73-4.15L234.73-4.15Q237.11-4.15 239.00-5.00L239.00-5.00L239.00-5.00Q240.89-5.86 242.20-7.41L242.20-7.41L242.20-7.41Q243.51-8.97 244.21-11.10L244.21-11.10L244.21-11.10Q244.91-13.24 244.91-15.86zM218.93-15.86L218.93-15.86L218.93-15.86Q218.93-19.70 220.15-22.78L220.15-22.78L220.15-22.78Q221.37-25.86 223.47-28.00L223.47-28.00L223.47-28.00Q225.58-30.13 228.48-31.29L228.48-31.29L228.48-31.29Q231.37-32.45 234.73-32.45L234.73-32.45L234.73-32.45Q238.02-32.45 240.92-31.29L240.92-31.29L240.92-31.29Q243.82-30.13 245.95-28.00L245.95-28.00L245.95-28.00Q248.09-25.86 249.31-22.81L249.31-22.81L249.31-22.81Q250.53-19.76 250.53-15.98L250.53-15.98L250.53-15.98Q250.53-12.20 249.34-9.12L249.34-9.12L249.34-9.12Q248.15-6.04 246.01-3.84L246.01-3.84L246.01-3.84Q243.88-1.65 240.98-0.46L240.98-0.46L240.98-0.46Q238.08 0.73 234.73 0.73L234.73 0.73L234.73 0.73Q231.31 0.73 228.41-0.49L228.41-0.49L228.41-0.49Q225.52-1.71 223.41-3.90L223.41-3.90L223.41-3.90Q221.31-6.10 220.12-9.15L220.12-9.15L220.12-9.15Q218.93-12.20 218.93-15.86" fill="#656565" stroke="none" stroke-width="none" transform="translate(-378.11005878448486,17.495799454116824)" style="fill: rgb(101, 101, 101); animation-play-state: running; animation-delay: 0s;"></path></g><g class="path" style="transform: matrix(1, 0, 0, 1, 0, 0); transform-origin: -106.175px 1.6358px; animation: 1s linear -0.396s infinite normal forwards running bounce-688e8def-ec9a-44e5-a035-7764efad05c0;"><path d="M255.71-15.68L255.71-15.68L255.71-15.68Q255.71-19.21 256.81-22.30L256.81-22.30L256.81-22.30Q257.91-25.38 259.89-27.63L259.89-27.63L259.89-27.63Q261.87-29.89 264.65-31.17L264.65-31.17L264.65-31.17Q267.42-32.45 270.72-32.45L270.72-32.45L270.72-32.45Q273.46-32.45 275.69-31.51L275.69-31.51L275.69-31.51Q277.92-30.56 279.56-29.16L279.56-29.16L279.56-31.72L284.56-31.72L284.56-7.69L284.56-7.69Q284.56-5.37 285.69-4.67L285.69-4.67L285.69-4.67Q286.82-3.96 288.16-3.96L288.16-3.96L287.00 0.30L287.00 0.30Q281.15 0.30 279.93-4.45L279.93-4.45L279.93-4.45Q279.20-3.48 278.25-2.53L278.25-2.53L278.25-2.53Q277.31-1.59 276.09-0.85L276.09-0.85L276.09-0.85Q274.87-0.12 273.34 0.30L273.34 0.30L273.34 0.30Q271.82 0.73 269.99 0.73L269.99 0.73L269.99 0.73Q267.00 0.73 264.40-0.43L264.40-0.43L264.40-0.43Q261.81-1.59 259.89-3.72L259.89-3.72L259.89-3.72Q257.97-5.86 256.84-8.88L256.84-8.88L256.84-8.88Q255.71-11.89 255.71-15.68zM271.21-4.15L271.21-4.15L271.21-4.15Q273.52-4.15 275.60-5.25L275.60-5.25L275.60-5.25Q277.67-6.34 279.07-8.11L279.07-8.11L279.07-25.13L279.07-25.13Q277.43-26.29 275.45-26.99L275.45-26.99L275.45-26.99Q273.46-27.69 271.27-27.69L271.27-27.69L271.27-27.69Q269.07-27.69 267.24-26.84L267.24-26.84L267.24-26.84Q265.41-25.99 264.10-24.43L264.10-24.43L264.10-24.43Q262.79-22.88 262.06-20.68L262.06-20.68L262.06-20.68Q261.32-18.48 261.32-15.86L261.32-15.86L261.32-15.86Q261.32-13.30 262.06-11.13L262.06-11.13L262.06-11.13Q262.79-8.97 264.13-7.41L264.13-7.41L264.13-7.41Q265.47-5.86 267.27-5.00L267.27-5.00L267.27-5.00Q269.07-4.15 271.21-4.15" fill="#656565" stroke="none" stroke-width="none" transform="translate(-378.11005878448486,17.495799454116824)" style="fill: rgb(101, 101, 101); animation-play-state: running; animation-delay: 0s;"></path></g><g class="path" style="transform: matrix(1, 0, 0, 1, 0, 0); transform-origin: -69.2651px -4.7092px; animation: 1s linear -0.3696s infinite normal forwards running bounce-688e8def-ec9a-44e5-a035-7764efad05c0;"><path d="M306.89 0.73L306.89 0.73L306.89 0.73Q303.96 0.73 301.37-0.43L301.37-0.43L301.37-0.43Q298.78-1.59 296.86-3.72L296.86-3.72L296.86-3.72Q294.93-5.86 293.84-8.88L293.84-8.88L293.84-8.88Q292.74-11.89 292.74-15.68L292.74-15.68L292.74-15.68Q292.74-19.28 293.87-22.36L293.87-22.36L293.87-22.36Q295.00-25.44 296.92-27.66L296.92-27.66L296.92-27.66Q298.84-29.89 301.40-31.17L301.40-31.17L301.40-31.17Q303.96-32.45 306.83-32.45L306.83-32.45L306.83-32.45Q310.00-32.45 312.29-31.17L312.29-31.17L312.29-31.17Q314.58-29.89 315.86-28.55L315.86-28.55L315.86-45.14L321.35-45.14L321.35-7.69L321.35-7.69Q321.35-5.37 322.48-4.67L322.48-4.67L322.48-4.67Q323.60-3.96 324.95-3.96L324.95-3.96L323.79 0.30L323.79 0.30Q317.99 0.30 316.71-4.33L316.71-4.33L316.71-4.33Q315.31-2.38 312.93-0.82L312.93-0.82L312.93-0.82Q310.55 0.73 306.89 0.73zM308.11-4.15L308.11-4.15L308.11-4.15Q310.37-4.15 312.41-5.22L312.41-5.22L312.41-5.22Q314.45-6.28 315.86-7.99L315.86-7.99L315.86-23.73L315.86-23.73Q314.70-25.19 312.66-26.44L312.66-26.44L312.66-26.44Q310.61-27.69 308.05-27.69L308.05-27.69L308.05-27.69Q305.85-27.69 304.05-26.78L304.05-26.78L304.05-26.78Q302.25-25.86 300.97-24.28L300.97-24.28L300.97-24.28Q299.69-22.69 299.02-20.53L299.02-20.53L299.02-20.53Q298.35-18.36 298.35-15.86L298.35-15.86L298.35-15.86Q298.35-13.30 299.08-11.16L299.08-11.16L299.08-11.16Q299.81-9.03 301.13-7.47L301.13-7.47L301.13-7.47Q302.44-5.92 304.24-5.03L304.24-5.03L304.24-5.03Q306.04-4.15 308.11-4.15" fill="#656565" stroke="none" stroke-width="none" transform="translate(-378.11005878448486,17.495799454116824)" style="fill: rgb(101, 101, 101); animation-play-state: running; animation-delay: 0s;"></path></g><g class="path" style="transform: matrix(1, 0, 0, 1, 0, 0); transform-origin: -34.5901px 1.6358px; animation: 1s linear -0.3432s infinite normal forwards running bounce-688e8def-ec9a-44e5-a035-7764efad05c0;"><path d="M357.34-13.60L335.13-13.60L335.13-13.60Q335.68-9.15 338.24-6.65L338.24-6.65L338.24-6.65Q340.81-4.15 345.02-4.15L345.02-4.15L345.02-4.15Q347.76-4.15 349.96-4.73L349.96-4.73L349.96-4.73Q352.15-5.31 354.17-6.22L354.17-6.22L355.45-1.52L355.45-1.52Q353.25-0.49 350.51 0.12L350.51 0.12L350.51 0.12Q347.76 0.73 344.34 0.73L344.34 0.73L344.34 0.73Q340.93 0.73 338.18-0.40L338.18-0.40L338.18-0.40Q335.44-1.52 333.52-3.63L333.52-3.63L333.52-3.63Q331.60-5.73 330.56-8.81L330.56-8.81L330.56-8.81Q329.52-11.89 329.52-15.86L329.52-15.86L329.52-15.86Q329.52-19.40 330.56-22.45L330.56-22.45L330.56-22.45Q331.60-25.50 333.49-27.72L333.49-27.72L333.49-27.72Q335.38-29.95 338.00-31.20L338.00-31.20L338.00-31.20Q340.62-32.45 343.86-32.45L343.86-32.45L343.86-32.45Q347.27-32.45 349.83-31.29L349.83-31.29L349.83-31.29Q352.40-30.13 354.10-28.12L354.10-28.12L354.10-28.12Q355.81-26.11 356.67-23.42L356.67-23.42L356.67-23.42Q357.52-20.74 357.52-17.75L357.52-17.75L357.52-17.75Q357.52-15.62 357.34-13.60L357.34-13.60zM343.73-27.69L343.73-27.69L343.73-27.69Q340.14-27.69 337.85-25.25L337.85-25.25L337.85-25.25Q335.56-22.81 335.07-18.06L335.07-18.06L352.46-18.06L352.46-18.06Q352.46-22.69 350.14-25.19L350.14-25.19L350.14-25.19Q347.82-27.69 343.73-27.69" fill="#656565" stroke="none" stroke-width="none" transform="translate(-378.11005878448486,17.495799454116824)" style="fill: rgb(101, 101, 101); animation-play-state: running; animation-delay: 0s;"></path></g><g class="path" style="transform: matrix(1, 0, 0, 1, 0, 0); transform-origin: 0.699921px -4.7092px; animation: 1s linear -0.3168s infinite normal forwards running bounce-688e8def-ec9a-44e5-a035-7764efad05c0;"><path d="M376.86 0.73L376.86 0.73L376.86 0.73Q373.93 0.73 371.34-0.43L371.34-0.43L371.34-0.43Q368.74-1.59 366.82-3.72L366.82-3.72L366.82-3.72Q364.90-5.86 363.80-8.88L363.80-8.88L363.80-8.88Q362.71-11.89 362.71-15.68L362.71-15.68L362.71-15.68Q362.71-19.28 363.83-22.36L363.83-22.36L363.83-22.36Q364.96-25.44 366.88-27.66L366.88-27.66L366.88-27.66Q368.81-29.89 371.37-31.17L371.37-31.17L371.37-31.17Q373.93-32.45 376.80-32.45L376.80-32.45L376.80-32.45Q379.97-32.45 382.26-31.17L382.26-31.17L382.26-31.17Q384.54-29.89 385.82-28.55L385.82-28.55L385.82-45.14L391.31-45.14L391.31-7.69L391.31-7.69Q391.31-5.37 392.44-4.67L392.44-4.67L392.44-4.67Q393.57-3.96 394.91-3.96L394.91-3.96L393.75 0.30L393.75 0.30Q387.96 0.30 386.68-4.33L386.68-4.33L386.68-4.33Q385.28-2.38 382.90-0.82L382.90-0.82L382.90-0.82Q380.52 0.73 376.86 0.73zM378.08-4.15L378.08-4.15L378.08-4.15Q380.33-4.15 382.38-5.22L382.38-5.22L382.38-5.22Q384.42-6.28 385.82-7.99L385.82-7.99L385.82-23.73L385.82-23.73Q384.67-25.19 382.62-26.44L382.62-26.44L382.62-26.44Q380.58-27.69 378.02-27.69L378.02-27.69L378.02-27.69Q375.82-27.69 374.02-26.78L374.02-26.78L374.02-26.78Q372.22-25.86 370.94-24.28L370.94-24.28L370.94-24.28Q369.66-22.69 368.99-20.53L368.99-20.53L368.99-20.53Q368.32-18.36 368.32-15.86L368.32-15.86L368.32-15.86Q368.32-13.30 369.05-11.16L369.05-11.16L369.05-11.16Q369.78-9.03 371.09-7.47L371.09-7.47L371.09-7.47Q372.40-5.92 374.20-5.03L374.20-5.03L374.20-5.03Q376.00-4.15 378.08-4.15" fill="#656565" stroke="none" stroke-width="none" transform="translate(-378.11005878448486,17.495799454116824)" style="fill: rgb(101, 101, 101); animation-play-state: running; animation-delay: 0s;"></path></g><g class="path" style="transform: matrix(1, 0, 0, 1, 0, 0); transform-origin: 54.2549px -3.8542px; animation: 1s linear -0.2904s infinite normal forwards running bounce-688e8def-ec9a-44e5-a035-7764efad05c0;"><path d="M417.48-3.60L420.41-8.48L420.41-8.48Q422.61-6.65 425.35-5.49L425.35-5.49L425.35-5.49Q428.10-4.33 431.76-4.33L431.76-4.33L431.76-4.33Q436.15-4.33 438.71-6.16L438.71-6.16L438.71-6.16Q441.27-7.99 441.27-11.10L441.27-11.10L441.27-11.10Q441.27-12.38 440.91-13.48L440.91-13.48L440.91-13.48Q440.54-14.58 439.47-15.59L439.47-15.59L439.47-15.59Q438.41-16.59 436.49-17.60L436.49-17.60L436.49-17.60Q434.56-18.61 431.51-19.76L431.51-19.76L431.51-19.76Q428.22-21.04 425.93-22.30L425.93-22.30L425.93-22.30Q423.64-23.55 422.24-25.04L422.24-25.04L422.24-25.04Q420.84-26.54 420.23-28.33L420.23-28.33L420.23-28.33Q419.62-30.13 419.62-32.45L419.62-32.45L419.62-32.45Q419.62-34.71 420.56-36.72L420.56-36.72L420.56-36.72Q421.51-38.73 423.37-40.23L423.37-40.23L423.37-40.23Q425.23-41.72 427.95-42.58L427.95-42.58L427.95-42.58Q430.66-43.43 434.14-43.43L434.14-43.43L434.14-43.43Q437.92-43.43 440.91-42.67L440.91-42.67L440.91-42.67Q443.90-41.91 446.82-40.50L446.82-40.50L444.69-35.56L444.69-35.56Q442.62-36.78 439.84-37.61L439.84-37.61L439.84-37.61Q437.06-38.43 434.01-38.43L434.01-38.43L434.01-38.43Q429.99-38.43 427.67-36.87L427.67-36.87L427.67-36.87Q425.35-35.32 425.35-32.76L425.35-32.76L425.35-32.76Q425.35-31.54 425.69-30.59L425.69-30.59L425.69-30.59Q426.02-29.65 427.03-28.76L427.03-28.76L427.03-28.76Q428.04-27.88 429.84-26.96L429.84-26.96L429.84-26.96Q431.64-26.05 434.62-24.95L434.62-24.95L434.62-24.95Q438.16-23.61 440.60-22.20L440.60-22.20L440.60-22.20Q443.04-20.80 444.51-19.21L444.51-19.21L444.51-19.21Q445.97-17.63 446.61-15.80L446.61-15.80L446.61-15.80Q447.25-13.97 447.25-11.77L447.25-11.77L447.25-11.77Q447.25-8.78 446.09-6.47L446.09-6.47L446.09-6.47Q444.93-4.15 442.89-2.53L442.89-2.53L442.89-2.53Q440.85-0.92 437.98-0.09L437.98-0.09L437.98-0.09Q435.11 0.73 431.76 0.73L431.76 0.73L431.76 0.73Q427.30 0.73 423.64-0.46L423.64-0.46L423.64-0.46Q419.98-1.65 417.48-3.60L417.48-3.60" fill="#656565" stroke="none" stroke-width="none" transform="translate(-378.11005878448486,17.495799454116824)" style="fill: rgb(101, 101, 101); animation-play-state: running; animation-delay: 0s;"></path></g><g class="path" style="transform: matrix(1, 0, 0, 1, 0, 0); transform-origin: 91.6849px 2.0008px; animation: 1s linear -0.264s infinite normal forwards running bounce-688e8def-ec9a-44e5-a035-7764efad05c0;"><path d="M484.71-3.96L483.55 0.30L483.55 0.30Q480.62 0.30 478.91-0.85L478.91-0.85L478.91-0.85Q477.20-2.01 476.53-4.21L476.53-4.21L476.53-4.21Q474.40-2.01 471.62-0.64L471.62-0.64L471.62-0.64Q468.85 0.73 465.55 0.73L465.55 0.73L465.55 0.73Q463.48 0.73 461.56 0.09L461.56 0.09L461.56 0.09Q459.63-0.55 458.14-1.95L458.14-1.95L458.14-1.95Q456.65-3.35 455.76-5.61L455.76-5.61L455.76-5.61Q454.88-7.87 454.88-11.10L454.88-11.10L454.88-31.72L460.37-31.72L460.37-11.83L460.37-11.83Q460.37-8.11 461.92-6.13L461.92-6.13L461.92-6.13Q463.48-4.15 466.59-4.15L466.59-4.15L466.59-4.15Q469.15-4.15 471.47-5.15L471.47-5.15L471.47-5.15Q473.79-6.16 475.62-7.87L475.62-7.87L475.62-31.72L481.11-31.72L481.11-8.23L481.11-8.23Q481.11-6.89 481.41-6.07L481.41-6.07L481.41-6.07Q481.72-5.25 482.20-4.79L482.20-4.79L482.20-4.79Q482.69-4.33 483.36-4.15L483.36-4.15L483.36-4.15Q484.03-3.96 484.71-3.96L484.71-3.96" fill="#656565" stroke="none" stroke-width="none" transform="translate(-378.11005878448486,17.495799454116824)" style="fill: rgb(101, 101, 101); animation-play-state: running; animation-delay: 0s;"></path></g><g class="path" style="transform: matrix(1, 0, 0, 1, 0, 0); transform-origin: 123.43px 1.6358px; animation: 1s linear -0.2376s infinite normal forwards running bounce-688e8def-ec9a-44e5-a035-7764efad05c0;"><path d="M513.31-30.56L511.67-25.93L511.67-25.93Q509.90-26.78 508.37-27.18L508.37-27.18L508.37-27.18Q506.85-27.57 504.96-27.57L504.96-27.57L504.96-27.57Q502.82-27.57 500.96-26.78L500.96-26.78L500.96-26.78Q499.10-25.99 497.76-24.49L497.76-24.49L497.76-24.49Q496.42-23.00 495.66-20.86L495.66-20.86L495.66-20.86Q494.89-18.73 494.89-15.98L494.89-15.98L494.89-15.98Q494.89-13.48 495.59-11.35L495.59-11.35L495.59-11.35Q496.30-9.21 497.58-7.59L497.58-7.59L497.58-7.59Q498.86-5.98 500.63-5.06L500.63-5.06L500.63-5.06Q502.40-4.15 504.59-4.15L504.59-4.15L504.59-4.15Q506.91-4.15 508.56-4.64L508.56-4.64L508.56-4.64Q510.20-5.12 512.09-6.16L512.09-6.16L513.80-1.52L513.80-1.52Q511.85-0.49 509.53 0.12L509.53 0.12L509.53 0.12Q507.21 0.73 504.23 0.73L504.23 0.73L504.23 0.73Q500.81 0.73 498.06-0.49L498.06-0.49L498.06-0.49Q495.32-1.71 493.37-3.90L493.37-3.90L493.37-3.90Q491.42-6.10 490.35-9.15L490.35-9.15L490.35-9.15Q489.28-12.20 489.28-15.86L489.28-15.86L489.28-15.86Q489.28-19.28 490.35-22.30L490.35-22.30L490.35-22.30Q491.42-25.31 493.43-27.57L493.43-27.57L493.43-27.57Q495.44-29.83 498.28-31.14L498.28-31.14L498.28-31.14Q501.11-32.45 504.65-32.45L504.65-32.45L504.65-32.45Q507.40-32.45 509.41-31.96L509.41-31.96L509.41-31.96Q511.42-31.48 513.31-30.56L513.31-30.56" fill="#656565" stroke="none" stroke-width="none" transform="translate(-378.11005878448486,17.495799454116824)" style="fill: rgb(101, 101, 101); animation-play-state: running; animation-delay: 0s;"></path></g><g class="path" style="transform: matrix(1, 0, 0, 1, 0, 0); transform-origin: 151.61px 1.6358px; animation: 1s linear -0.2112s infinite normal forwards running bounce-688e8def-ec9a-44e5-a035-7764efad05c0;"><path d="M541.50-30.56L539.85-25.93L539.85-25.93Q538.08-26.78 536.56-27.18L536.56-27.18L536.56-27.18Q535.03-27.57 533.14-27.57L533.14-27.57L533.14-27.57Q531.00-27.57 529.14-26.78L529.14-26.78L529.14-26.78Q527.28-25.99 525.94-24.49L525.94-24.49L525.94-24.49Q524.60-23.00 523.84-20.86L523.84-20.86L523.84-20.86Q523.07-18.73 523.07-15.98L523.07-15.98L523.07-15.98Q523.07-13.48 523.78-11.35L523.78-11.35L523.78-11.35Q524.48-9.21 525.76-7.59L525.76-7.59L525.76-7.59Q527.04-5.98 528.81-5.06L528.81-5.06L528.81-5.06Q530.58-4.15 532.77-4.15L532.77-4.15L532.77-4.15Q535.09-4.15 536.74-4.64L536.74-4.64L536.74-4.64Q538.39-5.12 540.28-6.16L540.28-6.16L541.98-1.52L541.98-1.52Q540.03-0.49 537.71 0.12L537.71 0.12L537.71 0.12Q535.40 0.73 532.41 0.73L532.41 0.73L532.41 0.73Q528.99 0.73 526.25-0.49L526.25-0.49L526.25-0.49Q523.50-1.71 521.55-3.90L521.55-3.90L521.55-3.90Q519.60-6.10 518.53-9.15L518.53-9.15L518.53-9.15Q517.46-12.20 517.46-15.86L517.46-15.86L517.46-15.86Q517.46-19.28 518.53-22.30L518.53-22.30L518.53-22.30Q519.60-25.31 521.61-27.57L521.61-27.57L521.61-27.57Q523.62-29.83 526.46-31.14L526.46-31.14L526.46-31.14Q529.30-32.45 532.83-32.45L532.83-32.45L532.83-32.45Q535.58-32.45 537.59-31.96L537.59-31.96L537.59-31.96Q539.61-31.48 541.50-30.56L541.50-30.56" fill="#656565" stroke="none" stroke-width="none" transform="translate(-378.11005878448486,17.495799454116824)" style="fill: rgb(101, 101, 101); animation-play-state: running; animation-delay: 0s;"></path></g><g class="path" style="transform: matrix(1, 0, 0, 1, 0, 0); transform-origin: 181.53px 1.6358px; animation: 1s linear -0.1848s infinite normal forwards running bounce-688e8def-ec9a-44e5-a035-7764efad05c0;"><path d="M573.46-13.60L551.26-13.60L551.26-13.60Q551.81-9.15 554.37-6.65L554.37-6.65L554.37-6.65Q556.93-4.15 561.14-4.15L561.14-4.15L561.14-4.15Q563.88-4.15 566.08-4.73L566.08-4.73L566.08-4.73Q568.28-5.31 570.29-6.22L570.29-6.22L571.57-1.52L571.57-1.52Q569.37-0.49 566.63 0.12L566.63 0.12L566.63 0.12Q563.88 0.73 560.47 0.73L560.47 0.73L560.47 0.73Q557.05 0.73 554.31-0.40L554.31-0.40L554.31-0.40Q551.56-1.52 549.64-3.63L549.64-3.63L549.64-3.63Q547.72-5.73 546.68-8.81L546.68-8.81L546.68-8.81Q545.64-11.89 545.64-15.86L545.64-15.86L545.64-15.86Q545.64-19.40 546.68-22.45L546.68-22.45L546.68-22.45Q547.72-25.50 549.61-27.72L549.61-27.72L549.61-27.72Q551.50-29.95 554.12-31.20L554.12-31.20L554.12-31.20Q556.75-32.45 559.98-32.45L559.98-32.45L559.98-32.45Q563.40-32.45 565.96-31.29L565.96-31.29L565.96-31.29Q568.52-30.13 570.23-28.12L570.23-28.12L570.23-28.12Q571.94-26.11 572.79-23.42L572.79-23.42L572.79-23.42Q573.64-20.74 573.64-17.75L573.64-17.75L573.64-17.75Q573.64-15.62 573.46-13.60L573.46-13.60zM559.86-27.69L559.86-27.69L559.86-27.69Q556.26-27.69 553.97-25.25L553.97-25.25L553.97-25.25Q551.68-22.81 551.20-18.06L551.20-18.06L568.58-18.06L568.58-18.06Q568.58-22.69 566.26-25.19L566.26-25.19L566.26-25.19Q563.94-27.69 559.86-27.69" fill="#656565" stroke="none" stroke-width="none" transform="translate(-378.11005878448486,17.495799454116824)" style="fill: rgb(101, 101, 101); animation-play-state: running; animation-delay: 0s;"></path></g><g class="path" style="transform: matrix(1, 0, 0, 1, 0, 0); transform-origin: 212.095px 1.6358px; animation: 1s linear -0.1584s infinite normal forwards running bounce-688e8def-ec9a-44e5-a035-7764efad05c0;"><path d="M578.22-2.56L580.54-7.14L580.54-7.14Q582.12-5.73 584.53-4.88L584.53-4.88L584.53-4.88Q586.94-4.03 589.69-4.03L589.69-4.03L589.69-4.03Q593.10-4.03 594.84-5.15L594.84-5.15L594.84-5.15Q596.58-6.28 596.58-8.05L596.58-8.05L596.58-8.05Q596.58-8.97 596.24-9.76L596.24-9.76L596.24-9.76Q595.91-10.55 595.02-11.29L595.02-11.29L595.02-11.29Q594.14-12.02 592.61-12.72L592.61-12.72L592.61-12.72Q591.09-13.42 588.65-14.27L588.65-14.27L588.65-14.27Q584.14-15.80 581.94-17.90L581.94-17.90L581.94-17.90Q579.74-20.01 579.74-23.73L579.74-23.73L579.74-23.73Q579.74-25.56 580.57-27.14L580.57-27.14L580.57-27.14Q581.39-28.73 582.95-29.92L582.95-29.92L582.95-29.92Q584.50-31.11 586.73-31.78L586.73-31.78L586.73-31.78Q588.95-32.45 591.82-32.45L591.82-32.45L591.82-32.45Q594.93-32.45 597.28-31.81L597.28-31.81L597.28-31.81Q599.63-31.17 601.52-30.20L601.52-30.20L600.00-25.68L600.00-25.68Q598.35-26.66 596.24-27.27L596.24-27.27L596.24-27.27Q594.14-27.88 591.58-27.88L591.58-27.88L591.58-27.88Q588.41-27.88 586.76-26.60L586.76-26.60L586.76-26.60Q585.11-25.31 585.11-23.79L585.11-23.79L585.11-23.79Q585.11-23.06 585.39-22.45L585.39-22.45L585.39-22.45Q585.66-21.84 586.39-21.29L586.39-21.29L586.39-21.29Q587.12-20.74 588.34-20.19L588.34-20.19L588.34-20.19Q589.56-19.64 591.39-19.03L591.39-19.03L591.39-19.03Q594.38-18.00 596.46-16.93L596.46-16.93L596.46-16.93Q598.53-15.86 599.81-14.58L599.81-14.58L599.81-14.58Q601.09-13.30 601.64-11.80L601.64-11.80L601.64-11.80Q602.19-10.31 602.19-8.48L602.19-8.48L602.19-8.48Q602.19-6.34 601.28-4.64L601.28-4.64L601.28-4.64Q600.36-2.93 598.71-1.74L598.71-1.74L598.71-1.74Q597.07-0.55 594.72 0.09L594.72 0.09L594.72 0.09Q592.37 0.73 589.50 0.73L589.50 0.73L589.50 0.73Q585.84 0.73 582.98-0.18L582.98-0.18L582.98-0.18Q580.11-1.10 578.22-2.56L578.22-2.56" fill="#656565" stroke="none" stroke-width="none" transform="translate(-378.11005878448486,17.495799454116824)" style="fill: rgb(101, 101, 101); animation-play-state: running; animation-delay: 0s;"></path></g><g class="path" style="transform: matrix(1, 0, 0, 1, 0, 0); transform-origin: 240.645px 1.6358px; animation: 1s linear -0.132s infinite normal forwards running bounce-688e8def-ec9a-44e5-a035-7764efad05c0;"><path d="M606.77-2.56L609.08-7.14L609.08-7.14Q610.67-5.73 613.08-4.88L613.08-4.88L613.08-4.88Q615.49-4.03 618.23-4.03L618.23-4.03L618.23-4.03Q621.65-4.03 623.39-5.15L623.39-5.15L623.39-5.15Q625.13-6.28 625.13-8.05L625.13-8.05L625.13-8.05Q625.13-8.97 624.79-9.76L624.79-9.76L624.79-9.76Q624.46-10.55 623.57-11.29L623.57-11.29L623.57-11.29Q622.69-12.02 621.16-12.72L621.16-12.72L621.16-12.72Q619.64-13.42 617.20-14.27L617.20-14.27L617.20-14.27Q612.68-15.80 610.49-17.90L610.49-17.90L610.49-17.90Q608.29-20.01 608.29-23.73L608.29-23.73L608.29-23.73Q608.29-25.56 609.12-27.14L609.12-27.14L609.12-27.14Q609.94-28.73 611.49-29.92L611.49-29.92L611.49-29.92Q613.05-31.11 615.28-31.78L615.28-31.78L615.28-31.78Q617.50-32.45 620.37-32.45L620.37-32.45L620.37-32.45Q623.48-32.45 625.83-31.81L625.83-31.81L625.83-31.81Q628.18-31.17 630.07-30.20L630.07-30.20L628.54-25.68L628.54-25.68Q626.90-26.66 624.79-27.27L624.79-27.27L624.79-27.27Q622.69-27.88 620.13-27.88L620.13-27.88L620.13-27.88Q616.95-27.88 615.31-26.60L615.31-26.60L615.31-26.60Q613.66-25.31 613.66-23.79L613.66-23.79L613.66-23.79Q613.66-23.06 613.93-22.45L613.93-22.45L613.93-22.45Q614.21-21.84 614.94-21.29L614.94-21.29L614.94-21.29Q615.67-20.74 616.89-20.19L616.89-20.19L616.89-20.19Q618.11-19.64 619.94-19.03L619.94-19.03L619.94-19.03Q622.93-18.00 625.01-16.93L625.01-16.93L625.01-16.93Q627.08-15.86 628.36-14.58L628.36-14.58L628.36-14.58Q629.64-13.30 630.19-11.80L630.19-11.80L630.19-11.80Q630.74-10.31 630.74-8.48L630.74-8.48L630.74-8.48Q630.74-6.34 629.82-4.64L629.82-4.64L629.82-4.64Q628.91-2.93 627.26-1.74L627.26-1.74L627.26-1.74Q625.62-0.55 623.27 0.09L623.27 0.09L623.27 0.09Q620.92 0.73 618.05 0.73L618.05 0.73L618.05 0.73Q614.39 0.73 611.52-0.18L611.52-0.18L611.52-0.18Q608.66-1.10 606.77-2.56L606.77-2.56" fill="#656565" stroke="none" stroke-width="none" transform="translate(-378.11005878448486,17.495799454116824)" style="fill: rgb(101, 101, 101); animation-play-state: running; animation-delay: 0s;"></path></g><g class="path" style="transform: matrix(1, 0, 0, 1, 0, 0); transform-origin: 267.515px -5.4392px; animation: 1s linear -0.1056s infinite normal forwards running bounce-688e8def-ec9a-44e5-a035-7764efad05c0;"><path d="M657.46-43.86L655.81-39.22L655.81-39.22Q654.53-39.89 653.07-40.44L653.07-40.44L653.07-40.44Q651.60-40.99 649.83-40.99L649.83-40.99L649.83-40.99Q647.27-40.99 645.72-39.38L645.72-39.38L645.72-39.38Q644.16-37.76 644.16-34.65L644.16-34.65L644.16-30.56L653.55-30.56L653.55-25.80L644.16-25.80L644.16 0L638.67 0L638.67-25.80L633.79-25.80L633.79-30.56L638.67-30.56L638.67-34.28L638.67-34.28Q638.67-36.97 639.46-39.10L639.46-39.10L639.46-39.10Q640.26-41.24 641.66-42.76L641.66-42.76L641.66-42.76Q643.06-44.29 645.07-45.08L645.07-45.08L645.07-45.08Q647.09-45.87 649.47-45.87L649.47-45.87L649.47-45.87Q652.03-45.87 653.89-45.29L653.89-45.29L653.89-45.29Q655.75-44.71 657.46-43.86L657.46-43.86" fill="#656565" stroke="none" stroke-width="none" transform="translate(-378.11005878448486,17.495799454116824)" style="fill: rgb(101, 101, 101); animation-play-state: running; animation-delay: 0s;"></path></g><g class="path" style="transform: matrix(1, 0, 0, 1, 0, 0); transform-origin: 295.785px 2.0008px; animation: 1s linear -0.0792s infinite normal forwards running bounce-688e8def-ec9a-44e5-a035-7764efad05c0;"><path d="M688.81-3.96L687.65 0.30L687.65 0.30Q684.72 0.30 683.02-0.85L683.02-0.85L683.02-0.85Q681.31-2.01 680.64-4.21L680.64-4.21L680.64-4.21Q678.50-2.01 675.73-0.64L675.73-0.64L675.73-0.64Q672.95 0.73 669.66 0.73L669.66 0.73L669.66 0.73Q667.58 0.73 665.66 0.09L665.66 0.09L665.66 0.09Q663.74-0.55 662.25-1.95L662.25-1.95L662.25-1.95Q660.75-3.35 659.87-5.61L659.87-5.61L659.87-5.61Q658.98-7.87 658.98-11.10L658.98-11.10L658.98-31.72L664.47-31.72L664.47-11.83L664.47-11.83Q664.47-8.11 666.03-6.13L666.03-6.13L666.03-6.13Q667.58-4.15 670.69-4.15L670.69-4.15L670.69-4.15Q673.26-4.15 675.57-5.15L675.57-5.15L675.57-5.15Q677.89-6.16 679.72-7.87L679.72-7.87L679.72-31.72L685.21-31.72L685.21-8.23L685.21-8.23Q685.21-6.89 685.52-6.07L685.52-6.07L685.52-6.07Q685.82-5.25 686.31-4.79L686.31-4.79L686.31-4.79Q686.80-4.33 687.47-4.15L687.47-4.15L687.47-4.15Q688.14-3.96 688.81-3.96L688.81-3.96" fill="#656565" stroke="none" stroke-width="none" transform="translate(-378.11005878448486,17.495799454116824)" style="fill: rgb(101, 101, 101); animation-play-state: running; animation-delay: 0s;"></path></g><g class="path" style="transform: matrix(1, 0, 0, 1, 0, 0); transform-origin: 325.83px -4.7092px; animation: 1s linear -0.0528s infinite normal forwards running bounce-688e8def-ec9a-44e5-a035-7764efad05c0;"><path d="M701.32-45.14L701.32-10.49L701.32-10.49Q701.32-7.20 702.69-5.61L702.69-5.61L702.69-5.61Q704.06-4.03 706.50-4.03L706.50-4.03L706.50-4.03Q707.66-4.03 708.76-4.30L708.76-4.30L708.76-4.30Q709.86-4.58 710.71-4.94L710.71-4.94L712.05-0.49L712.05-0.49Q710.95 0 709.34 0.37L709.34 0.37L709.34 0.37Q707.72 0.73 705.77 0.73L705.77 0.73L705.77 0.73Q703.63 0.73 701.84 0.12L701.84 0.12L701.84 0.12Q700.04-0.49 698.69-1.77L698.69-1.77L698.69-1.77Q697.35-3.05 696.59-5.06L696.59-5.06L696.59-5.06Q695.83-7.08 695.83-9.94L695.83-9.94L695.83-45.14L701.32-45.14" fill="#656565" stroke="none" stroke-width="none" transform="translate(-378.11005878448486,17.495799454116824)" style="fill: rgb(101, 101, 101); animation-play-state: running; animation-delay: 0s;"></path></g><g class="path" style="transform: matrix(1, 0, 0, 1, 0, 0); transform-origin: 346.325px -4.7092px; animation: 1s linear -0.0264s infinite normal forwards running bounce-688e8def-ec9a-44e5-a035-7764efad05c0;"><path d="M721.81-45.14L721.81-10.49L721.81-10.49Q721.81-7.20 723.19-5.61L723.19-5.61L723.19-5.61Q724.56-4.03 727.00-4.03L727.00-4.03L727.00-4.03Q728.16-4.03 729.25-4.30L729.25-4.30L729.25-4.30Q730.35-4.58 731.21-4.94L731.21-4.94L732.55-0.49L732.55-0.49Q731.45 0 729.83 0.37L729.83 0.37L729.83 0.37Q728.22 0.73 726.27 0.73L726.27 0.73L726.27 0.73Q724.13 0.73 722.33 0.12L722.33 0.12L722.33 0.12Q720.53-0.49 719.19-1.77L719.19-1.77L719.19-1.77Q717.85-3.05 717.09-5.06L717.09-5.06L717.09-5.06Q716.32-7.08 716.32-9.94L716.32-9.94L716.32-45.14L721.81-45.14" fill="#656565" stroke="none" stroke-width="none" transform="translate(-378.11005878448486,17.495799454116824)" style="fill: rgb(101, 101, 101); animation-play-state: running; animation-delay: 0s;"></path></g><g class="path" style="transform: matrix(1, 0, 0, 1, 0, 0); transform-origin: 368.105px 8.3458px; animation: 1s linear 0s infinite normal forwards running bounce-688e8def-ec9a-44e5-a035-7764efad05c0;"><path d="M736.09 14.15L736.09 14.15L736.09 14.15Q734.26 14.15 732.88 13.79L732.88 13.79L732.88 13.79Q731.51 13.42 730.72 12.93L730.72 12.93L731.94 8.36L731.94 8.36Q732.67 8.78 733.74 9.09L733.74 9.09L733.74 9.09Q734.81 9.39 736.21 9.39L736.21 9.39L736.21 9.39Q737.49 9.39 738.62 9.03L738.62 9.03L738.62 9.03Q739.75 8.66 740.78 7.75L740.78 7.75L740.78 7.75Q741.82 6.83 742.77 5.25L742.77 5.25L742.77 5.25Q743.71 3.66 744.63 1.28L744.63 1.28L746.03-2.38L743.10-2.38L730.72-30.26L735.60-32.45L747.43-6.04L756.64-32.21L761.71-30.26L750.06 1.59L750.06 1.59Q748.71 5.25 747.22 7.66L747.22 7.66L747.22 7.66Q745.72 10.06 744.02 11.53L744.02 11.53L744.02 11.53Q742.31 12.99 740.33 13.57L740.33 13.57L740.33 13.57Q738.34 14.15 736.09 14.15" fill="#656565" stroke="none" stroke-width="none" transform="translate(-378.11005878448486,17.495799454116824)" style="fill: rgb(101, 101, 101); animation-play-state: running; animation-delay: 0s;"></path></g></g>
</g>
</g>
<style id="bounce-688e8def-ec9a-44e5-a035-7764efad05c0" data-anikit="">@keyframes bounce-688e8def-ec9a-44e5-a035-7764efad05c0
{
  0% {
    animation-timing-function: cubic-bezier(0.1361,0.2514,0.2175,0.8786);
    transform: translate(0,0px) scaleY(1);
  }
  37% {
    animation-timing-function: cubic-bezier(0.7674,0.1844,0.8382,0.7157);
    transform: translate(0,-39.96px) scaleY(1);
  }
  72% {
    animation-timing-function: cubic-bezier(0.1118,0.2149,0.2172,0.941);
    transform: translate(0,0px) scaleY(1);
  }
  87% {
    animation-timing-function: cubic-bezier(0.7494,0.2259,0.8209,0.6963);
    transform: translate(0,19.900000000000002px) scaleY(0.602);
  }
  100% {
    transform: translate(0,0px) scaleY(1);
  }
}</style></svg>